# xmcd
#
# Track frame offsets: 
#        150
#        14961
#        30315
#        54461
#        75264
#        95463
#        113878
#        132219
#        149714
#        172115
#        194111
#        208839
#        227723
#
# Disc length: 3341 seconds
#
# Revision: 0
# Processed by: cddbd v1.5.2PL0 Copyright (c) Steve Scherf et al.
# Submitted via: ExactAudioCopy v1.0b1
#
DISCID=bd0d0b0d
DTITLE=Kimberly Summer - Listen
DYEAR=2005
DGENRE=Country
TTITLE0=Blue Skies
TTITLE1=Read These Lips
TTITLE2=What About Us
TTITLE3=Push Me Away
TTITLE4=Who Is This Man
TTITLE5=Middle Ground
TTITLE6=Listen
TTITLE7=Save Me
TTITLE8=Stay Awhile
TTITLE9=Sweet Sarah
TTITLE10=Solve It Now
TTITLE11=Don't Tell Me
TTITLE12=Show Me My Purpose
EXTD=
EXTT0=
EXTT1=
EXTT2=
EXTT3=
EXTT4=
EXTT5=
EXTT6=
EXTT7=
EXTT8=
EXTT9=
EXTT10=
EXTT11=
EXTT12=
PLAYORDER=
